<?xml version="1.0" encoding="iso-8859-1"?>
<!-- Generator: Adobe Illustrator 16.0.0, SVG Export Plug-In . SVG Version: 6.00 Build 0)  -->
<!DOCTYPE svg PUBLIC "-//W3C//DTD SVG 1.1//EN" "http://www.w3.org/Graphics/SVG/1.1/DTD/svg11.dtd">
<svg version="1.1" id="Capa_1" xmlns="http://www.w3.org/2000/svg" xmlns:xlink="http://www.w3.org/1999/xlink" x="0px" y="0px"
	 width="578.713px" height="578.713px" viewBox="0 0 578.713 578.713" style="enable-background:new 0 0 578.713 578.713; fill: #fff;"
	 xml:space="preserve">
<g>
	<g>
		<path d="M402.011,155.011c8.3,8.298,17.974,14.819,28.757,19.379c11.187,4.731,23.044,7.13,35.244,7.13s24.059-2.399,35.245-7.13
			c10.782-4.561,20.458-11.081,28.756-19.379c8.299-8.299,14.818-17.974,19.379-28.757c4.731-11.186,7.131-23.044,7.131-35.244
			c0-12.199-2.399-24.058-7.13-35.244c-4.562-10.783-11.081-20.458-19.38-28.757S512.04,12.191,501.257,7.63
			c-11.187-4.731-23.045-7.13-35.245-7.13s-24.058,2.399-35.244,7.13c-10.783,4.561-20.458,11.081-28.756,19.379
			c-8.3,8.299-14.819,17.974-19.381,28.757c-4.73,11.186-7.129,23.044-7.129,35.244c0,8.625,1.204,17.077,3.579,25.243
			l-198.224,113.89c-1.333-1.522-2.716-3.006-4.156-4.447c-8.299-8.299-17.973-14.819-28.756-19.38
			c-11.186-4.731-23.044-7.13-35.245-7.13s-24.058,2.399-35.244,7.13c-10.783,4.561-20.458,11.081-28.757,19.38
			c-8.299,8.299-14.819,17.974-19.379,28.757c-4.731,11.187-7.131,23.044-7.131,35.245c0,12.199,2.399,24.057,7.131,35.244
			c4.561,10.783,11.081,20.457,19.379,28.756s17.974,14.818,28.757,19.381c11.186,4.73,23.043,7.131,35.244,7.131
			s24.059-2.4,35.245-7.131c10.783-4.562,20.458-11.082,28.756-19.381c1.47-1.469,2.881-2.984,4.239-4.539l198.104,113.43
			c-2.35,8.127-3.541,16.535-3.541,25.115c0,12.201,2.398,24.059,7.13,35.244c4.561,10.783,11.08,20.457,19.379,28.756
			c8.3,8.299,17.974,14.82,28.757,19.381c11.187,4.73,23.044,7.129,35.244,7.129s24.059-2.398,35.245-7.129
			c10.782-4.561,20.458-11.082,28.756-19.381c8.299-8.299,14.818-17.973,19.379-28.756c4.731-11.186,7.131-23.045,7.131-35.244
			s-2.399-24.057-7.13-35.244c-4.562-10.783-11.081-20.459-19.38-28.756c-8.299-8.299-17.974-14.818-28.756-19.381
			c-11.187-4.73-23.045-7.129-35.245-7.129s-24.058,2.398-35.244,7.129c-10.783,4.562-20.458,11.082-28.757,19.381
			c-0.565,0.564-1.12,1.139-1.669,1.715L200.66,311.084c1.692-6.961,2.552-14.111,2.552-21.387c0-7.316-0.87-14.508-2.581-21.508
			l199.804-114.797C400.953,153.938,401.478,154.477,402.011,155.011z M439.701,447.955c7.542-5.004,16.585-7.924,26.312-7.924
			c26.328,0,47.672,21.344,47.672,47.672s-21.344,47.672-47.672,47.672s-47.671-21.344-47.671-47.672
			c0-0.863,0.025-1.721,0.071-2.572C419.24,469.6,427.5,456.047,439.701,447.955z M112.701,337.367
			c-26.328,0-47.671-21.342-47.671-47.67c0-26.329,21.343-47.671,47.671-47.671c11.172,0,21.438,3.853,29.565,10.29
			c11.025,8.731,18.106,22.225,18.106,37.382c0,15.133-7.061,28.611-18.059,37.344C134.178,333.5,123.894,337.367,112.701,337.367z
			 M418.342,91.01c0-26.328,21.343-47.671,47.671-47.671s47.671,21.343,47.671,47.671c0,26.328-21.343,47.671-47.671,47.671
			c-9.703,0-18.723-2.906-26.252-7.885c-12.215-8.076-20.494-21.618-21.343-37.145C418.371,92.777,418.342,91.896,418.342,91.01z"/>
		<path d="M466.012,578.713c-12.268,0-24.19-2.412-35.438-7.168c-10.84-4.585-20.568-11.142-28.916-19.488
			c-8.345-8.345-14.9-18.072-19.486-28.915c-4.757-11.246-7.169-23.17-7.169-35.438c0-8.453,1.161-16.819,3.452-24.876
			L181.046,349.795c-1.304,1.48-2.646,2.911-3.992,4.256c-8.341,8.343-18.07,14.899-28.915,19.488
			c-11.251,4.758-23.174,7.17-35.439,7.17c-12.264,0-24.188-2.412-35.438-7.17c-10.844-4.589-20.573-11.146-28.916-19.488
			c-8.345-8.345-14.901-18.073-19.486-28.915c-4.758-11.25-7.17-23.173-7.17-35.438c0-12.267,2.413-24.19,7.17-35.439
			c4.585-10.842,11.142-20.571,19.486-28.916c8.343-8.344,18.072-14.9,28.916-19.487c11.249-4.758,23.172-7.17,35.438-7.17
			c12.267,0,24.19,2.412,35.439,7.17c10.842,4.586,20.57,11.142,28.915,19.487c1.316,1.317,2.63,2.716,3.908,4.163l197.53-113.491
			c-2.316-8.095-3.49-16.505-3.49-25.004c0-12.268,2.412-24.19,7.168-35.438c4.588-10.844,11.145-20.573,19.488-28.916
			c8.344-8.344,18.072-14.9,28.915-19.486C441.822,2.412,453.745,0,466.012,0s24.191,2.412,35.439,7.17
			c10.842,4.585,20.57,11.142,28.915,19.486c8.343,8.342,14.899,18.071,19.487,28.916c4.757,11.25,7.169,23.173,7.169,35.438
			c0,12.267-2.412,24.19-7.17,35.439c-4.587,10.843-11.143,20.572-19.486,28.916c-8.344,8.344-18.071,14.9-28.915,19.486
			c-11.248,4.758-23.172,7.17-35.439,7.17s-24.19-2.412-35.438-7.17c-10.841-4.584-20.569-11.141-28.916-19.486
			c-0.443-0.444-0.882-0.892-1.314-1.344L201.205,268.436c1.664,6.932,2.507,14.083,2.507,21.261c0,7.138-0.833,14.248-2.478,21.14
			l199.018,113.952c0.463-0.483,0.931-0.965,1.406-1.439c8.343-8.343,18.071-14.899,28.915-19.488
			c11.249-4.756,23.172-7.168,35.439-7.168s24.191,2.412,35.439,7.168c10.844,4.589,20.572,11.146,28.915,19.488
			c8.343,8.341,14.898,18.068,19.487,28.915c4.757,11.251,7.169,23.174,7.169,35.438c0,12.268-2.412,24.19-7.17,35.438
			c-4.586,10.843-11.142,20.57-19.486,28.915c-8.345,8.346-18.072,14.902-28.915,19.488
			C490.204,576.301,478.28,578.713,466.012,578.713z M180.833,348.521l0.355,0.204L379.633,462.35l-0.109,0.377
			c-2.337,8.082-3.521,16.485-3.521,24.977c0,12.135,2.386,23.927,7.091,35.05c4.534,10.723,11.019,20.344,19.271,28.597
			c8.257,8.256,17.878,14.74,28.598,19.273c11.125,4.705,22.917,7.09,35.05,7.09c12.134,0,23.926-2.385,35.051-7.09
			c10.723-4.535,20.344-11.02,28.597-19.273c8.253-8.253,14.737-17.874,19.271-28.597c4.706-11.125,7.092-22.917,7.092-35.05
			c0-12.13-2.386-23.923-7.091-35.05c-4.537-10.727-11.021-20.348-19.272-28.597c-8.251-8.251-17.873-14.735-28.598-19.273
			c-11.124-4.705-22.916-7.09-35.05-7.09c-12.133,0-23.925,2.385-35.05,7.09c-10.725,4.537-20.346,11.022-28.598,19.273
			c-0.562,0.562-1.114,1.133-1.66,1.706l-0.271,0.284l-0.34-0.195L200.085,311.331l0.089-0.365
			c1.684-6.928,2.538-14.084,2.538-21.269c0-7.225-0.864-14.421-2.567-21.389l-0.089-0.365l0.326-0.187l200.145-114.993l0.271,0.285
			c0.516,0.543,1.038,1.079,1.568,1.611c8.256,8.253,17.877,14.738,28.598,19.272c11.125,4.705,22.917,7.091,35.05,7.091
			c12.134,0,23.926-2.386,35.051-7.091c10.724-4.536,20.345-11.02,28.597-19.272s14.736-17.874,19.271-28.598
			c4.706-11.125,7.092-22.917,7.092-35.049c0-12.131-2.386-23.923-7.091-35.049c-4.537-10.726-11.021-20.347-19.272-28.598
			c-8.254-8.253-17.875-14.737-28.597-19.272C489.938,3.386,478.146,1,466.012,1c-12.133,0-23.925,2.386-35.05,7.091
			c-10.724,4.536-20.345,11.02-28.597,19.272c-8.252,8.251-14.736,17.873-19.273,28.598c-4.705,11.124-7.09,22.916-7.09,35.049
			c0,8.537,1.197,16.983,3.56,25.103l0.109,0.377l-198.92,114.29l-0.27-0.308c-1.349-1.541-2.74-3.028-4.134-4.423
			c-8.253-8.253-17.875-14.737-28.597-19.273c-11.125-4.705-22.917-7.091-35.05-7.091c-12.132,0-23.924,2.386-35.049,7.091
			c-10.725,4.536-20.346,11.021-28.598,19.273c-8.253,8.253-14.737,17.875-19.272,28.598c-4.706,11.125-7.091,22.917-7.091,35.05
			c0,12.131,2.386,23.923,7.091,35.05c4.535,10.722,11.019,20.343,19.272,28.597c8.251,8.251,17.874,14.736,28.598,19.273
			c11.127,4.706,22.919,7.092,35.049,7.092c12.13,0,23.923-2.386,35.05-7.092c10.726-4.538,20.347-11.022,28.597-19.273
			c1.423-1.422,2.842-2.941,4.216-4.515L180.833,348.521z M466.012,535.875c-26.562,0-48.171-21.609-48.171-48.172
			c0-0.837,0.024-1.712,0.072-2.599c0.805-15.123,8.847-29.167,21.511-37.566c7.896-5.238,17.089-8.007,26.588-8.007
			c26.562,0,48.172,21.609,48.172,48.172S492.575,535.875,466.012,535.875z M466.012,440.531c-9.302,0-18.304,2.711-26.035,7.841
			c-12.401,8.226-20.276,21.977-21.065,36.785c-0.047,0.87-0.07,1.727-0.07,2.546c0,26.011,21.161,47.172,47.171,47.172
			c26.011,0,47.172-21.161,47.172-47.172S492.023,440.531,466.012,440.531z M112.701,337.867c-26.562,0-48.171-21.609-48.171-48.17
			c0-26.562,21.609-48.171,48.171-48.171c10.956,0,21.286,3.595,29.875,10.397c11.627,9.208,18.295,22.976,18.295,37.774
			c0,14.773-6.651,28.527-18.248,37.735C134.026,334.259,123.679,337.867,112.701,337.867z M112.701,242.526
			c-26.01,0-47.171,21.161-47.171,47.171c0,26.01,21.161,47.17,47.171,47.17c10.75,0,20.883-3.533,29.301-10.218
			c11.356-9.017,17.87-22.485,17.87-36.952c0-14.49-6.53-27.973-17.917-36.99C133.544,246.046,123.429,242.526,112.701,242.526z
			 M466.013,139.181c-9.472,0-18.646-2.755-26.527-7.968c-12.678-8.381-20.74-22.413-21.566-37.535
			c-0.052-0.945-0.077-1.818-0.077-2.669c0-26.562,21.609-48.171,48.171-48.171s48.171,21.609,48.171,48.171
			S492.575,139.181,466.013,139.181z M466.013,43.839c-26.01,0-47.171,21.161-47.171,47.171c0,0.832,0.024,1.687,0.075,2.614
			c0.81,14.807,8.705,28.547,21.119,36.755c7.719,5.104,16.701,7.802,25.977,7.802c26.01,0,47.171-21.161,47.171-47.171
			S492.023,43.839,466.013,43.839z"/>
	</g>
</g>
<g>
</g>
<g>
</g>
<g>
</g>
<g>
</g>
<g>
</g>
<g>
</g>
<g>
</g>
<g>
</g>
<g>
</g>
<g>
</g>
<g>
</g>
<g>
</g>
<g>
</g>
<g>
</g>
<g>
</g>
</svg>
